<svg xmlns="http://www.w3.org/2000/svg" viewBox="580.177 1651.245 980.915 172.493">
  <defs>
    <style>
      .cls-1 {
        fill: #fff;
      }

      .cls-2 {
        fill: #40bcae;
      }
    </style>
  </defs>
  <g id="factWordMarkWhiteBg_outlines_reversed" data-name="factWordMarkWhiteBg_outlines reversed" transform="translate(580.177 1651.245)">
    <rect id="Rectangle_144" data-name="Rectangle 144" class="cls-1" width="549.599" height="172.493" transform="translate(431.316 0)"/>
    <rect id="Rectangle_145" data-name="Rectangle 145" class="cls-2" width="431.324" height="172.493" transform="translate(0 0)"/>
    <path id="Path_182" data-name="Path 182" class="cls-1" d="M101.515,140.865v25.993h43.526v17.418H101.515v41.984H80.17V123.6h76.513v17.257Z" transform="translate(-36.222 -86.847)"/>
    <path id="Path_183" data-name="Path 183" class="cls-1" d="M245.032,201.195H205.686l-8.329,25.034H175.49L212.811,123.6h25.556L275.7,226.229h-22.15Zm-5.269-15.861-9.6-28.923-4.648-15.547h-.307l-4.341,15.255-9.909,29.237Z" transform="translate(-58.434 -86.847)"/>
    <path id="Path_184" data-name="Path 184" class="cls-1" d="M391.089,219.773q-11.466,7.547-27.412,7.539-15.025,0-26.177-6.374a42.374,42.374,0,0,1-17.111-18.277q-5.967-11.9-5.959-28.225t5.959-28.225a42.512,42.512,0,0,1,17.034-18.269q11.075-6.374,25.939-6.374,15.953,0,27.028,6.688T405.646,148.2l-19.359,8.214q-2.477-9.2-7.746-13.215t-14.25-4.042q-13.038,0-20.363,9.2t-7.355,26.123q0,16.95,7.125,26.123t20.133,9.2q18.737,0,23.546-18.193l19.673,5.906Q402.548,212.234,391.089,219.773Z" transform="translate(-90.811 -86.374)"/>
    <path id="Path_185" data-name="Path 185" class="cls-1" d="M537.082,140.865h-34.23v85.364H481.483V140.865H447.1V123.6h89.982Z" transform="translate(-121.726 -86.847)"/>
    <path id="Path_186" data-name="Path 186" class="cls-2" d="M624.566,226.229H603.19V123.6h21.376Z" transform="translate(-158.099 -86.847)"/>
    <path id="Path_187" data-name="Path 187" class="cls-2" d="M743.869,140.865h-34.23v85.364H688.263V140.865H653.88V123.6h89.989Z" transform="translate(-169.911 -86.847)"/>
    <path id="Path_188" data-name="Path 188" class="cls-2" d="M815.391,226.229H794V123.6h21.375Z" transform="translate(-202.563 -86.847)"/>
    <path id="Path_189" data-name="Path 189" class="cls-2" d="M925.324,127.954a42.542,42.542,0,0,1,17.035,18.269q5.96,11.9,5.959,28.225t-5.959,28.225a42.537,42.537,0,0,1-17.034,18.269q-11.076,6.381-26.077,6.374t-26.177-6.374a42.374,42.374,0,0,1-17.111-18.269Q850,190.776,850,174.448t5.959-28.225a42.383,42.383,0,0,1,17.111-18.269q11.152-6.374,26.177-6.374T925.324,127.954Zm-46.18,20.294q-7.048,9.1-7.048,26.2t7.048,26.2q7.049,9.1,20.057,9.1,12.855,0,19.9-9.1t7.048-26.2q0-17.1-7.048-26.2t-19.9-9.1Q886.217,139.151,879.145,148.248Z" transform="translate(-215.612 -86.376)"/>
    <path id="Path_190" data-name="Path 190" class="cls-2" d="M1091.6,185.8q0,20.839-11.075,31.446t-32.6,10.577q-21.529,0-32.6-10.577T1004.24,185.8V123.6h21.376v61.266q0,12.908,5.5,19.128t16.8,6.22q11.306,0,16.728-6.22t5.423-19.128V123.6H1091.6Z" transform="translate(-251.554 -86.847)"/>
    <path id="Path_191" data-name="Path 191" class="cls-2" d="M1210.2,126.315a47.727,47.727,0,0,1,17.963,15l-14.711,14.458a28.868,28.868,0,0,0-10.684-12.517q-6.657-4.119-16.873-4.119-9.3,0-14.327,3.5a10.767,10.767,0,0,0-5.031,9.25q0,5.292,5.108,8.4t18.407,5.445q13.937,2.646,22.15,6.535t12,9.718q3.8,5.829,3.8,14.572a26.079,26.079,0,0,1-5.369,16.406,34.234,34.234,0,0,1-14.872,10.653A58.736,58.736,0,0,1,1186,227.349q-16.875,0-27.611-4.74A40.7,40.7,0,0,1,1141,208.182l12.7-15.24q5.728,9.487,13.169,13.138t18.407,3.651q9.911,0,15.1-3.106a9.794,9.794,0,0,0,5.192-8.866q0-4.2-4.878-6.995t-17.425-5.284q-14.4-2.953-23.01-6.995t-12.47-9.971q-3.835-5.906-3.835-14.618a29.037,29.037,0,0,1,4.955-16.559,32.758,32.758,0,0,1,14.48-11.581q9.526-4.2,22.381-4.2Q1199.972,121.575,1210.2,126.315Z" transform="translate(-283.422 -86.371)"/>
  </g>
</svg>
